<?xml version="1.0"?>
<svg width="2000" height="2600" xmlns="http://www.w3.org/2000/svg" xmlns:svg="http://www.w3.org/2000/svg" version="1.1">
 <!-- Generator: Sketch 55.2 (78181) - https://sketchapp.com -->
 <title>Waimakariri</title>
 <desc>Created with Sketch.</desc>

 <!-- COLOURS -->
<!-- PRIMARY BLUE: #066693 -->
<!-- SECONDARY PINK: #FCB1BE -->
<!-- ACCENT BROWN: #933306 -->
<!-- LIGHT GREY: #d1e3f3 -->

 <g class="layer">
  <title>Layer 1</title>
  <g fill="none" fill-rule="evenodd" id="Patterns" transform="rotate(-10 572.965 406.657)">
   <g fill-rule="nonzero" id="Waimakariri">
    <g id="Shape" transform="translate(-414 -380)">
     <path d="m2043.8,1250.53c239.02,14.55 412.19,-171.36 432.78,-431.56c20.6,-260.2 -193.76,-467.63 -432.78,-431.55c-239.02,36.08 -414.93,184.12 -432.79,431.55c-17.86,247.44 193.77,417.01 432.79,431.56z" fill="#d1e3f3" id="svg_1" transform="rotate(39 968.965 -226.667) translate(1074.99 1044) translate(-1074.99 -1044)"/>
     <path d="m2907.3,347.33c106.92,-19.37 201.5,-89.99 201.5,-201c0,-111.01 -90.21,-201 -201.5,-201c-111.28,0 -183.87,101.49 -201.5,201c-17.63,99.51 94.58,220.38 201.5,201z" fill="#d1e3f3" id="svg_2" transform="rotate(39 968.965 -226.667) translate(1937.42 374.032) translate(-1937.42 -374.032)"/>
     <path d="m2807.88,777.33c152.55,0 251.76,122.38 276.21,276.16c24.45,153.78 0,333.35 0,479.68c0,146.34 -113.89,276.16 -276.21,276.16c-162.32,0 -292.51,-129.54 -276.21,-276.16c16.29,-146.62 -16.3,-321.42 0,-479.68c16.29,-158.26 123.66,-276.16 276.21,-276.16z" fill="#d1e3f3" id="svg_3" transform="rotate(39 968.965 -226.667) translate(1842 1520) translate(-1842 -1520)"/>
     <path d="m1678.95,594.61c121.64,0 210.5,-94.24 210.5,-210.5c0,-116.25 -103.15,-224.87 -210.5,-210.5c-107.36,14.38 -226.71,83.41 -210.5,210.5c16.2,127.1 88.86,210.5 210.5,210.5z" fill="#FCB1BE" id="svg_4" transform="rotate(39 968.965 -226.667) translate(709.243 610.142) translate(-709.243 -610.142)"/>
     <path d="m1878.2,1253.33c38.58,0 66.76,-29.91 66.76,-66.8c0,-36.89 -32.72,-71.35 -66.76,-66.79c-34.05,4.56 -71.91,26.46 -66.77,66.79c5.14,40.33 28.18,66.8 66.77,66.8z" fill="#FCB1BE" id="svg_5" transform="rotate(39 968.965 -226.667) translate(909 1413) translate(-909 -1413)"/>
     <path d="m1460.11,276.33c25.34,0 43.85,-19.64 43.85,-43.87c0,-24.22 -21.48,-46.86 -43.85,-43.86c-22.36,2.99 -47.22,17.38 -43.84,43.86c3.37,26.49 18.51,43.87 43.84,43.87z" fill="#FCB1BE" id="svg_6" transform="rotate(39 968.965 -226.667) translate(491 459) translate(-491 -459)"/>
     <path d="m1978.95,1191.29c12.12,0.74 20.9,-8.69 21.94,-21.88c1.04,-13.19 -9.82,-23.7 -21.94,-21.87c-12.11,1.83 -21.03,9.33 -21.94,21.87c-0.9,12.55 9.83,21.14 21.94,21.88z" fill="#FCB1BE" id="svg_7" transform="rotate(156 968.965 -226.667) translate(1010 1396) translate(-1010 -1396)"/>
     <path d="m2700.35,383.33c63.92,0 110.61,-49.55 110.61,-110.66c0,-61.12 -54.2,-118.22 -110.61,-110.66c-56.41,7.55 -119.12,43.84 -110.61,110.66c8.51,66.81 46.69,110.66 110.61,110.66z" fill="#933306" id="svg_8" transform="rotate(39 968.965 -226.667) translate(1731 499) translate(-1731 -499)"/>
     <path d="m1922.11,560.33c25.34,0 43.85,-19.64 43.85,-43.87c0,-24.22 -21.48,-46.86 -43.85,-43.86c-22.36,2.99 -47.22,17.38 -43.84,43.86c3.37,26.49 18.51,43.87 43.84,43.87z" fill="#933306" id="svg_9" transform="rotate(39 968.965 -226.667) translate(953 743) translate(-953 -743)"/>
     <path d="m1995.03,559.33c11.52,0 19.93,-8.93 19.93,-19.94c0,-11.01 -9.77,-21.3 -19.93,-19.94c-10.16,1.36 -21.46,7.9 -19.93,19.94c1.53,12.04 8.41,19.94 19.93,19.94z" fill="#933306" id="svg_10" transform="rotate(39 968.965 -226.667) translate(1026 766) translate(-1026 -766)"/>
     <path d="m2378.29,1424.33c41.87,0 67.26,-62.98 73.14,-113.72c5.89,-50.74 -38.24,-97.07 -92.23,-91.88c-54,5.19 -92.24,41.14 -92.24,91.88c0,50.74 69.45,113.72 111.33,113.72z" fill="#933306" id="svg_11" transform="rotate(39 968.965 -226.667) translate(1390.5 1548) translate(-1390.5 -1548)"/>
     <path d="m1841.89,1019c97.48,5.93 168.1,-69.88 176.5,-176c8.4,-106.12 -79.02,-190.72 -176.5,-176c-97.48,14.71 -169.21,75.09 -176.5,176c-7.28,100.91 79.02,170.06 176.5,176z" fill="#d1e3f3" id="svg_12" transform="rotate(39 968.965 -226.667) translate(872.995 1069) translate(-872.995 -1069)"/>
     <path d="m2845.94,951.21c36.9,2.24 63.63,-26.46 66.81,-66.63c3.18,-40.17 -29.91,-72.19 -66.81,-66.62c-36.9,5.57 -64.06,28.43 -66.82,66.62c-2.75,38.2 29.92,64.38 66.82,66.63z" fill="#d1e3f3" id="svg_13" transform="rotate(39 968.965 -226.667) translate(1877 1111) translate(-1877 -1111)"/>
     <path d="m1971.95,1031.29c12.12,0.74 20.9,-8.69 21.94,-21.88c1.04,-13.19 -9.82,-23.7 -21.94,-21.87c-12.11,1.83 -21.03,9.33 -21.94,21.87c-0.9,12.55 9.83,21.14 21.94,21.88z" fill="#d1e3f3" id="svg_14" transform="rotate(39 968.965 -226.667) translate(1003 1236) translate(-1003 -1236)"/>
     <path d="m2886.95,1000.29c12.12,0.74 20.9,-8.69 21.94,-21.88c1.04,-13.19 -9.82,-23.7 -21.94,-21.87c-12.11,1.83 -21.03,9.33 -21.94,21.87c-0.9,12.55 9.83,21.14 21.94,21.88z" fill="#d1e3f3" id="svg_15" transform="rotate(39 968.965 -226.667) translate(1918 1205) translate(-1918 -1205)"/>
     <path d="m1998.96,974.31c6.05,0.37 10.44,-4.34 10.97,-10.94c0.52,-6.59 -4.92,-11.85 -10.97,-10.94c-6.06,0.92 -10.52,4.67 -10.97,10.94c-0.46,6.27 4.91,10.57 10.97,10.94z" fill="#d1e3f3" id="svg_16" transform="rotate(39 968.965 -226.667) translate(1030 1190) translate(-1030 -1190)"/>
     <path d="m2299.94,728.21c36.9,2.24 63.63,-26.46 66.81,-66.63c3.18,-40.17 -29.91,-72.19 -66.81,-66.62c-36.9,5.57 -64.06,28.43 -66.82,66.62c-2.75,38.2 29.92,64.38 66.82,66.63z" fill="#933306" id="svg_17" transform="rotate(39 968.965 -226.667) translate(1331 888) translate(-1331 -888)"/>
     <path d="m1523.95,654.29c12.12,0.74 20.9,-8.69 21.94,-21.88c1.04,-13.19 -9.82,-23.7 -21.94,-21.87c-12.11,1.83 -21.03,9.33 -21.94,21.87c-0.9,12.55 9.83,21.14 21.94,21.88z" fill="#933306" id="svg_18" transform="rotate(39 968.965 -226.667) translate(555 859) translate(-555 -859)"/>
     <path d="m2779.95,1157.29c12.12,0.74 20.9,-8.69 21.94,-21.88c1.04,-13.19 -9.82,-23.7 -21.94,-21.87c-12.11,1.83 -21.03,9.33 -21.94,21.87c-0.9,12.55 9.83,21.14 21.94,21.88z" fill="#933306" id="svg_19" transform="rotate(39 968.965 -226.667) translate(1811 1362) translate(-1811 -1362)"/>
     <path d="m2261.95,777.29c12.12,0.74 20.9,-8.69 21.94,-21.88c1.04,-13.19 -9.82,-23.7 -21.94,-21.87c-12.11,1.83 -21.03,9.33 -21.94,21.87c-0.9,12.55 9.83,21.14 21.94,21.88z" fill="#933306" id="svg_20" transform="rotate(117 968.965 -226.667) translate(1293 982) translate(-1293 -982)"/>
     <path d="m2966.94,551.21c36.9,2.24 63.63,-26.46 66.81,-66.63c3.18,-40.17 -29.91,-72.19 -66.81,-66.62c-36.9,5.57 -64.06,28.43 -66.82,66.62c-2.75,38.2 29.92,64.38 66.82,66.63z" fill="#066693" id="svg_21" transform="rotate(39 968.965 -226.667) translate(1998 711) translate(-1998 -711)"/>
     <path d="m1492.46,1568.33c137.25,0 256.99,-122.67 274.5,-274c17.51,-151.33 -113.8,-289.48 -274.5,-274c-160.7,15.48 -274.5,122.67 -274.5,274c0,151.33 137.25,274 274.5,274z" fill="#066693" id="svg_22" transform="rotate(39 968.965 -226.667) translate(524.285 1520.41) translate(-524.285 -1520.41)"/>
     <path d="m2636.46,441.33c111.29,0 183.66,89.3 201.5,201.5c17.84,112.2 0,243.23 0,350c0,106.77 -83.09,201.5 -201.5,201.5c-118.41,0 -213.39,-94.52 -201.5,-201.5c11.89,-106.98 -11.89,-234.52 0,-350c11.89,-115.48 90.21,-201.5 201.5,-201.5z" fill="#066693" id="svg_23" transform="rotate(39 968.965 -226.667) translate(1669.75 1044.5) translate(-1669.75 -1044.5)"/>
     <path d="m2496.43,522.16c49.84,3.04 85.95,-35.73 90.24,-89.99c4.3,-54.26 -40.4,-97.51 -90.24,-89.99c-49.85,7.53 -86.52,38.4 -90.25,89.99c-3.72,51.6 40.4,86.96 90.25,89.99z" fill="#FCB1BE" id="svg_24" transform="rotate(39 968.965 -226.667) translate(1527.5 658.5) translate(-1527.5 -658.5)"/>
     <path d="m1317.87,1225.87c136.58,8.32 235.54,-97.91 247.31,-246.6c11.76,-148.69 -110.73,-267.22 -247.31,-246.6c-136.58,20.62 -237.1,105.21 -247.31,246.6c-10.2,141.39 110.73,238.29 247.31,246.6z" fill="#FCB1BE" id="svg_25" transform="rotate(39 968.965 -226.667) translate(349 1205) translate(-349 -1205)"/>
     <path d="m3048.87,1610.87c136.58,8.32 235.54,-97.91 247.31,-246.6c11.76,-148.69 -110.73,-267.22 -247.31,-246.6c-136.58,20.62 -237.1,105.21 -247.31,246.6c-10.2,141.39 110.73,238.29 247.31,246.6z" fill="#FCB1BE" id="svg_26" transform="rotate(39 968.965 -226.667) translate(2080 1590) translate(-2080 -1590)"/>
     <path d="m2841.11,410.99c17.43,-3.16 32.85,-14.7 32.85,-32.83c0,-18.13 -14.71,-32.83 -32.85,-32.83c-18.14,0 -29.98,16.58 -32.85,32.83c-2.87,16.26 15.42,36 32.85,32.83z" fill="#d1e3f3" id="svg_27" transform="rotate(39 968.965 -226.667) translate(1872 605) translate(-1872 -605)"/>
     <path d="m2560.13,233.84c10.56,-1.92 19.91,-8.91 19.91,-19.9c0,-10.99 -8.92,-19.89 -19.91,-19.89c-11,0 -18.17,10.04 -19.91,19.89c-1.74,9.85 9.34,21.82 19.91,19.9z" fill="#d1e3f3" id="svg_28" transform="rotate(39 968.965 -226.667) translate(1591.08 440.716) translate(-1591.08 -440.716)"/>
     <path d="m2220.46,-182.67c111.29,0 201.5,90.21 201.5,201.5c0,111.29 -13,242.15 0,350c13,107.85 -90.25,214.98 -201.5,201.5c-111.25,-13.48 -201.5,-77.4 -201.5,-201.5c0,-124.1 0,-228.05 0,-350c0,-121.95 90.21,-201.5 201.5,-201.5z" fill="#066693" id="svg_29" transform="rotate(39 968.965 -226.667) translate(1252.06 421.076) translate(-1252.06 -421.076)"/>
    </g>
   </g>
  </g>
 </g>
</svg>

